<svg xmlns="http://www.w3.org/2000/svg" xmlns:xlink="http://www.w3.org/1999/xlink" fill="#ffffff" height="800px" width="800px" version="1.1" id="Icons" viewBox="0 0 32 32" xml:space="preserve">
<path d="M21,1H11C8.2,1,6,3.2,6,6v1v11v3c0,2.3,1.6,4.3,3.8,4.8l-3.5,3.5c-0.4,0.4-0.4,1,0,1.4C6.5,30.9,6.7,31,7,31  s0.5-0.1,0.7-0.3l4.7-4.7h7.2l4.7,4.7c0.2,0.2,0.5,0.3,0.7,0.3s0.5-0.1,0.7-0.3c0.4-0.4,0.4-1,0-1.4l-3.5-3.5  c2.2-0.6,3.8-2.5,3.8-4.8v-3V7V6C26,3.2,23.8,1,21,1z M13.9,22.4C13.7,22.8,13.4,23,13,23c-0.1,0-0.3,0-0.4-0.1l-2-1  c-0.5-0.2-0.7-0.8-0.4-1.3c0.2-0.5,0.8-0.7,1.3-0.4l2,1C13.9,21.4,14.1,22,13.9,22.4z M21.4,21.9l-2,1C19.3,23,19.2,23,19,23  c-0.4,0-0.7-0.2-0.9-0.6c-0.2-0.5,0-1.1,0.4-1.3l2-1c0.5-0.2,1.1,0,1.3,0.4C22.1,21,21.9,21.6,21.4,21.9z M24,17H8V8h16V17z" fill="#ffffff"/>
</svg>